<?xml version="1.0" standalone="no"?>
<!DOCTYPE svg PUBLIC "-//W3C//DTD SVG 20010904//EN"
 "http://www.w3.org/TR/2001/REC-SVG-20010904/DTD/svg10.dtd">
<svg version="1.0" xmlns="http://www.w3.org/2000/svg"
 width="790.000000pt" height="790.000000pt" viewBox="0 0 790.000000 790.000000"
 preserveAspectRatio="xMidYMid meet">
<metadata>
Created by potrace 1.15, written by Peter Selinger 2001-2017
</metadata>
<g transform="translate(0.000000,790.000000) scale(0.100000,-0.100000)"
fill="#000000" stroke="none">
<path d="M3661 7879 c-1053 -76 -2049 -585 -2726 -1395 -176 -210 -368 -487
-496 -716 -23 -40 -54 -95 -70 -123 -16 -27 -29 -58 -29 -67 0 -10 -4 -18 -10
-18 -5 0 -10 -9 -10 -20 0 -11 -4 -20 -10 -20 -5 0 -10 -9 -10 -20 0 -11 -4
-20 -10 -20 -5 0 -10 -13 -10 -30 0 -16 -4 -30 -10 -30 -5 0 -10 -13 -10 -30
0 -16 -4 -30 -10 -30 -5 0 -10 -9 -10 -20 0 -11 -4 -20 -10 -20 -5 0 -10 -13
-10 -30 0 -16 -4 -30 -10 -30 -5 0 -10 -13 -10 -30 0 -16 -4 -30 -10 -30 -5 0
-10 -13 -10 -30 0 -16 -4 -30 -10 -30 -5 0 -10 -18 -10 -40 0 -22 -4 -40 -10
-40 -5 0 -10 -13 -10 -30 0 -16 -4 -30 -10 -30 -5 0 -10 -18 -10 -40 0 -22 -4
-40 -10 -40 -5 0 -10 -22 -10 -50 0 -27 -4 -50 -10 -50 -5 0 -10 -18 -10 -40
0 -22 -4 -40 -10 -40 -6 0 -10 -27 -10 -60 0 -33 -4 -60 -10 -60 -6 0 -10 -27
-10 -60 0 -33 -4 -60 -10 -60 -6 0 -10 -40 -10 -100 0 -60 -4 -100 -10 -100
-6 0 -10 -123 -10 -350 0 -227 4 -350 10 -350 6 0 10 -40 10 -100 0 -60 4
-100 10 -100 6 0 10 -27 10 -60 0 -33 4 -60 10 -60 6 0 10 -27 10 -60 0 -33 4
-60 10 -60 6 0 10 -22 10 -50 0 -27 5 -50 10 -50 6 0 10 -18 10 -40 0 -22 5
-40 10 -40 6 0 10 -18 10 -40 0 -22 5 -40 10 -40 6 0 10 -13 10 -30 0 -16 5
-30 10 -30 6 0 10 -18 10 -40 0 -22 5 -40 10 -40 6 0 10 -13 10 -30 0 -16 5
-30 10 -30 6 0 10 -13 10 -30 0 -16 5 -30 10 -30 6 0 10 -13 10 -30 0 -16 5
-30 10 -30 6 0 10 -13 10 -30 0 -16 5 -30 10 -30 6 0 10 -9 10 -20 0 -11 5
-20 10 -20 6 0 10 -13 10 -30 0 -16 5 -30 10 -30 6 0 10 -9 10 -20 0 -11 5
-20 10 -20 6 0 10 -9 10 -20 0 -11 5 -20 10 -20 6 0 10 -13 10 -30 0 -16 5
-30 10 -30 6 0 10 -9 10 -20 0 -11 5 -20 10 -20 6 0 10 -9 10 -20 0 -11 5 -20
10 -20 6 0 10 -9 10 -20 0 -11 5 -20 10 -20 6 0 10 -9 10 -20 0 -11 5 -20 10
-20 6 0 10 -8 10 -18 0 -10 9 -24 20 -32 11 -8 20 -22 20 -32 0 -10 5 -18 10
-18 6 0 10 -9 10 -20 0 -11 5 -20 10 -20 6 0 10 -9 10 -20 0 -11 5 -20 10 -20
6 0 10 -8 10 -18 0 -10 9 -24 20 -32 11 -8 20 -22 20 -32 0 -10 5 -18 10 -18
6 0 10 -8 10 -18 0 -10 9 -24 20 -32 11 -8 20 -21 20 -30 0 -9 9 -22 20 -30
11 -8 20 -21 20 -30 0 -9 9 -22 20 -30 11 -8 20 -21 20 -28 0 -7 18 -31 40
-52 22 -21 40 -45 40 -52 0 -7 9 -20 20 -28 11 -8 20 -20 20 -28 0 -7 31 -44
70 -82 38 -38 70 -74 70 -80 0 -13 327 -340 340 -340 6 0 42 -31 80 -70 38
-38 75 -70 82 -70 8 0 20 -9 28 -20 8 -11 21 -20 28 -20 7 0 31 -18 52 -40 21
-22 45 -40 52 -40 7 0 20 -9 28 -20 8 -11 21 -20 30 -20 9 0 22 -9 30 -20 8
-11 21 -20 30 -20 9 0 22 -9 30 -20 8 -11 22 -20 32 -20 10 0 18 -4 18 -10 0
-5 8 -10 18 -10 10 0 24 -9 32 -20 8 -11 22 -20 32 -20 10 0 18 -4 18 -10 0
-5 9 -10 20 -10 11 0 20 -4 20 -10 0 -5 8 -10 18 -10 10 0 24 -9 32 -20 8 -11
22 -20 32 -20 10 0 18 -4 18 -10 0 -5 9 -10 20 -10 11 0 20 -4 20 -10 0 -5 9
-10 20 -10 11 0 20 -4 20 -10 0 -5 9 -10 20 -10 11 0 20 -4 20 -10 0 -5 9 -10
20 -10 11 0 20 -4 20 -10 0 -5 9 -10 20 -10 11 0 20 -4 20 -10 0 -5 14 -10 30
-10 17 0 30 -4 30 -10 0 -5 9 -10 20 -10 11 0 20 -4 20 -10 0 -5 9 -10 20 -10
11 0 20 -4 20 -10 0 -5 14 -10 30 -10 17 0 30 -4 30 -10 0 -5 9 -10 20 -10 11
0 20 -4 20 -10 0 -5 14 -10 30 -10 17 0 30 -4 30 -10 0 -5 14 -10 30 -10 17 0
30 -4 30 -10 0 -5 14 -10 30 -10 17 0 30 -4 30 -10 0 -5 14 -10 30 -10 17 0
30 -4 30 -10 0 -5 18 -10 40 -10 22 0 40 -4 40 -10 0 -5 14 -10 30 -10 17 0
30 -4 30 -10 0 -5 18 -10 40 -10 22 0 40 -4 40 -10 0 -5 23 -10 50 -10 28 0
50 -4 50 -10 0 -5 18 -10 40 -10 22 0 40 -4 40 -10 0 -6 27 -10 60 -10 33 0
60 -4 60 -10 0 -6 27 -10 60 -10 33 0 60 -4 60 -10 0 -6 47 -10 120 -10 73 0
120 -4 120 -10 0 -6 110 -10 310 -10 200 0 310 4 310 10 0 6 47 10 120 10 73
0 120 4 120 10 0 6 27 10 60 10 33 0 60 4 60 10 0 6 27 10 60 10 33 0 60 4 60
10 0 6 18 10 40 10 22 0 40 5 40 10 0 6 23 10 50 10 28 0 50 5 50 10 0 6 18
10 40 10 22 0 40 5 40 10 0 6 14 10 30 10 17 0 30 5 30 10 0 6 18 10 40 10 22
0 40 5 40 10 0 6 14 10 30 10 17 0 30 5 30 10 0 6 14 10 30 10 17 0 30 5 30
10 0 6 14 10 30 10 17 0 30 5 30 10 0 6 9 10 20 10 11 0 20 5 20 10 0 6 14 10
30 10 17 0 30 5 30 10 0 6 14 10 30 10 17 0 30 5 30 10 0 6 9 10 20 10 11 0
20 5 20 10 0 6 9 10 20 10 11 0 20 5 20 10 0 6 14 10 30 10 17 0 30 5 30 10 0
6 9 10 20 10 11 0 20 5 20 10 0 6 9 10 20 10 11 0 20 5 20 10 0 6 9 10 20 10
11 0 20 5 20 10 0 6 9 10 20 10 11 0 20 5 20 10 0 6 9 10 20 10 11 0 20 5 20
10 0 6 8 10 18 10 10 0 24 9 32 20 8 11 22 20 32 20 10 0 18 5 18 10 0 6 9 10
20 10 11 0 20 5 20 10 0 6 6 10 13 10 6 0 23 9 37 20 14 11 84 63 155 116 431
322 759 651 1018 1024 925 1329 943 3086 44 4435 -786 1181 -2147 1846 -3566
1744z m1577 -1625 l52 -7 0 -323 0 -324 553 -2 552 -3 0 -110 0 -110 -557 -3
-558 -2 0 -375 0 -375 558 -2 557 -3 3 -90 c2 -49 0 -100 -3 -112 l-5 -23
-555 0 -555 0 0 -330 0 -329 -34 -6 c-18 -4 -249 -5 -512 -2 -392 4 -493 7
-554 21 -317 68 -593 243 -777 492 -107 146 -194 342 -224 508 l-13 69 -190
-6 c-666 -22 -1011 -201 -1106 -573 -25 -96 -26 -253 -4 -362 70 -338 331
-626 624 -688 141 -30 266 -12 638 90 266 73 390 96 543 103 416 19 793 -105
1037 -341 176 -169 281 -370 332 -633 88 -454 -91 -830 -532 -1117 -227 -148
-575 -275 -823 -301 -114 -12 -195 56 -195 165 0 62 22 107 70 141 14 10 84
30 155 44 486 97 874 366 976 676 33 100 33 254 0 384 -95 380 -360 589 -806
636 -203 21 -343 2 -695 -96 -313 -87 -379 -98 -570 -99 -139 0 -178 4 -245
22 -291 80 -570 312 -717 598 -60 115 -83 175 -116 298 -25 94 -27 115 -26
301 0 190 1 205 27 290 87 283 252 479 516 614 236 120 468 171 882 193 l226
12 13 70 c17 96 73 255 122 346 151 282 417 509 716 609 150 51 188 55 572 61
201 3 417 7 480 8 63 1 139 -1 168 -4z"/>
</g>
</svg>
